<mxfile host="app.diagrams.net" modified="2024-06-06T02:44:21.342Z" agent="Mozilla/5.0 (Windows NT 10.0; Win64; x64) AppleWebKit/537.36 (KHTML, like Gecko) Chrome/122.0.0.0 Safari/537.36" etag="Nma4CdiFBemiXBL-g08M" version="24.4.14" type="github">
  <diagram id="C5RBs43oDa-KdzZeNtuy" name="Page-1">
    <mxGraphModel dx="4279" dy="2562" grid="1" gridSize="10" guides="1" tooltips="1" connect="1" arrows="1" fold="1" page="1" pageScale="1" pageWidth="827" pageHeight="1169" math="0" shadow="0">
      <root>
        <mxCell id="WIyWlLk6GJQsqaUBKTNV-0" />
        <mxCell id="WIyWlLk6GJQsqaUBKTNV-1" parent="WIyWlLk6GJQsqaUBKTNV-0" />
        <mxCell id="FjqlLkuucHFWqb2P5bbw-98" value="" style="shape=folder;fontStyle=1;spacingTop=10;tabWidth=100;tabHeight=30;tabPosition=left;html=1;whiteSpace=wrap;" vertex="1" parent="WIyWlLk6GJQsqaUBKTNV-1">
          <mxGeometry x="-690" y="114" width="850" height="360" as="geometry" />
        </mxCell>
        <mxCell id="FjqlLkuucHFWqb2P5bbw-99" value="RoboticArm" style="swimlane;fontStyle=0;align=center;verticalAlign=top;childLayout=stackLayout;horizontal=1;startSize=26;horizontalStack=0;resizeParent=1;resizeLast=0;collapsible=1;marginBottom=0;rounded=0;shadow=0;strokeWidth=1;" vertex="1" parent="WIyWlLk6GJQsqaUBKTNV-1">
          <mxGeometry x="-350" y="-50" width="160" height="138" as="geometry">
            <mxRectangle x="230" y="140" width="160" height="26" as="alternateBounds" />
          </mxGeometry>
        </mxCell>
        <mxCell id="FjqlLkuucHFWqb2P5bbw-100" value="" style="line;html=1;strokeWidth=1;align=left;verticalAlign=middle;spacingTop=-1;spacingLeft=3;spacingRight=3;rotatable=0;labelPosition=right;points=[];portConstraint=eastwest;" vertex="1" parent="FjqlLkuucHFWqb2P5bbw-99">
          <mxGeometry y="26" width="160" height="8" as="geometry" />
        </mxCell>
        <mxCell id="FjqlLkuucHFWqb2P5bbw-101" value="+ grabObject(): void&#xa;+ liftObject(): void&#xa;+ moveObject(): void&#xa;+ dropObject(): void" style="text;align=left;verticalAlign=top;spacingLeft=4;spacingRight=4;overflow=hidden;rotatable=0;points=[[0,0.5],[1,0.5]];portConstraint=eastwest;" vertex="1" parent="FjqlLkuucHFWqb2P5bbw-99">
          <mxGeometry y="34" width="160" height="70" as="geometry" />
        </mxCell>
        <mxCell id="FjqlLkuucHFWqb2P5bbw-102" value="Gripper" style="swimlane;fontStyle=0;align=center;verticalAlign=top;childLayout=stackLayout;horizontal=1;startSize=26;horizontalStack=0;resizeParent=1;resizeLast=0;collapsible=1;marginBottom=0;rounded=0;shadow=0;strokeWidth=1;" vertex="1" parent="WIyWlLk6GJQsqaUBKTNV-1">
          <mxGeometry x="-30" y="250" width="160" height="138" as="geometry">
            <mxRectangle x="230" y="140" width="160" height="26" as="alternateBounds" />
          </mxGeometry>
        </mxCell>
        <mxCell id="FjqlLkuucHFWqb2P5bbw-103" value="" style="line;html=1;strokeWidth=1;align=left;verticalAlign=middle;spacingTop=-1;spacingLeft=3;spacingRight=3;rotatable=0;labelPosition=right;points=[];portConstraint=eastwest;" vertex="1" parent="FjqlLkuucHFWqb2P5bbw-102">
          <mxGeometry y="26" width="160" height="8" as="geometry" />
        </mxCell>
        <mxCell id="FjqlLkuucHFWqb2P5bbw-104" value="+ openGripper(): void&#xa;+ closeGripper(): void" style="text;align=left;verticalAlign=top;spacingLeft=4;spacingRight=4;overflow=hidden;rotatable=0;points=[[0,0.5],[1,0.5]];portConstraint=eastwest;" vertex="1" parent="FjqlLkuucHFWqb2P5bbw-102">
          <mxGeometry y="34" width="160" height="50" as="geometry" />
        </mxCell>
        <mxCell id="FjqlLkuucHFWqb2P5bbw-105" value="Base" style="swimlane;fontStyle=0;align=center;verticalAlign=top;childLayout=stackLayout;horizontal=1;startSize=26;horizontalStack=0;resizeParent=1;resizeLast=0;collapsible=1;marginBottom=0;rounded=0;shadow=0;strokeWidth=1;" vertex="1" parent="WIyWlLk6GJQsqaUBKTNV-1">
          <mxGeometry x="-670" y="250" width="160" height="138" as="geometry">
            <mxRectangle x="230" y="140" width="160" height="26" as="alternateBounds" />
          </mxGeometry>
        </mxCell>
        <mxCell id="FjqlLkuucHFWqb2P5bbw-106" value="" style="line;html=1;strokeWidth=1;align=left;verticalAlign=middle;spacingTop=-1;spacingLeft=3;spacingRight=3;rotatable=0;labelPosition=right;points=[];portConstraint=eastwest;" vertex="1" parent="FjqlLkuucHFWqb2P5bbw-105">
          <mxGeometry y="26" width="160" height="8" as="geometry" />
        </mxCell>
        <mxCell id="FjqlLkuucHFWqb2P5bbw-107" value="+ turnRightBase(): void&#xa;+ turnLeftBase(): void" style="text;align=left;verticalAlign=top;spacingLeft=4;spacingRight=4;overflow=hidden;rotatable=0;points=[[0,0.5],[1,0.5]];portConstraint=eastwest;" vertex="1" parent="FjqlLkuucHFWqb2P5bbw-105">
          <mxGeometry y="34" width="160" height="40" as="geometry" />
        </mxCell>
        <mxCell id="FjqlLkuucHFWqb2P5bbw-108" value="Forearm" style="swimlane;fontStyle=0;align=center;verticalAlign=top;childLayout=stackLayout;horizontal=1;startSize=26;horizontalStack=0;resizeParent=1;resizeLast=0;collapsible=1;marginBottom=0;rounded=0;shadow=0;strokeWidth=1;" vertex="1" parent="WIyWlLk6GJQsqaUBKTNV-1">
          <mxGeometry x="-350" y="250" width="160" height="138" as="geometry">
            <mxRectangle x="230" y="140" width="160" height="26" as="alternateBounds" />
          </mxGeometry>
        </mxCell>
        <mxCell id="FjqlLkuucHFWqb2P5bbw-109" value="" style="line;html=1;strokeWidth=1;align=left;verticalAlign=middle;spacingTop=-1;spacingLeft=3;spacingRight=3;rotatable=0;labelPosition=right;points=[];portConstraint=eastwest;" vertex="1" parent="FjqlLkuucHFWqb2P5bbw-108">
          <mxGeometry y="26" width="160" height="8" as="geometry" />
        </mxCell>
        <mxCell id="FjqlLkuucHFWqb2P5bbw-110" value="+ riseForearm(): void&#xa;+ lowerForearm(): void&#xa;+ extendForearm(): void&#xa;+shrinkForearm(): void&#xa;" style="text;align=left;verticalAlign=top;spacingLeft=4;spacingRight=4;overflow=hidden;rotatable=0;points=[[0,0.5],[1,0.5]];portConstraint=eastwest;" vertex="1" parent="FjqlLkuucHFWqb2P5bbw-108">
          <mxGeometry y="34" width="160" height="66" as="geometry" />
        </mxCell>
        <mxCell id="FjqlLkuucHFWqb2P5bbw-111" value="Servomotor" style="swimlane;fontStyle=0;align=center;verticalAlign=top;childLayout=stackLayout;horizontal=1;startSize=26;horizontalStack=0;resizeParent=1;resizeLast=0;collapsible=1;marginBottom=0;rounded=0;shadow=0;strokeWidth=1;" vertex="1" parent="WIyWlLk6GJQsqaUBKTNV-1">
          <mxGeometry x="-350" y="530" width="160" height="160" as="geometry">
            <mxRectangle x="230" y="140" width="160" height="26" as="alternateBounds" />
          </mxGeometry>
        </mxCell>
        <mxCell id="FjqlLkuucHFWqb2P5bbw-112" value="- position: float&#xa;- state: boolean&#xa;- minimunRange: float&#xa;- maximumRange: float&#xa;&#xa;&#xa;&#xa;&#xa;&#xa;&#xa;" style="text;align=left;verticalAlign=top;spacingLeft=4;spacingRight=4;overflow=hidden;rotatable=0;points=[[0,0.5],[1,0.5]];portConstraint=eastwest;" vertex="1" parent="FjqlLkuucHFWqb2P5bbw-111">
          <mxGeometry y="26" width="160" height="84" as="geometry" />
        </mxCell>
        <mxCell id="FjqlLkuucHFWqb2P5bbw-113" value="" style="line;html=1;strokeWidth=1;align=left;verticalAlign=middle;spacingTop=-1;spacingLeft=3;spacingRight=3;rotatable=0;labelPosition=right;points=[];portConstraint=eastwest;" vertex="1" parent="FjqlLkuucHFWqb2P5bbw-111">
          <mxGeometry y="110" width="160" height="8" as="geometry" />
        </mxCell>
        <mxCell id="FjqlLkuucHFWqb2P5bbw-114" value="- turnRightServo(): void&#xa;- turnLeftServo(): void" style="text;align=left;verticalAlign=top;spacingLeft=4;spacingRight=4;overflow=hidden;rotatable=0;points=[[0,0.5],[1,0.5]];portConstraint=eastwest;" vertex="1" parent="FjqlLkuucHFWqb2P5bbw-111">
          <mxGeometry y="118" width="160" height="42" as="geometry" />
        </mxCell>
        <mxCell id="FjqlLkuucHFWqb2P5bbw-115" value="Object" style="swimlane;fontStyle=1;align=center;verticalAlign=top;childLayout=stackLayout;horizontal=1;startSize=26;horizontalStack=0;resizeParent=1;resizeLast=0;collapsible=1;marginBottom=0;rounded=0;shadow=0;strokeWidth=1;" vertex="1" parent="WIyWlLk6GJQsqaUBKTNV-1">
          <mxGeometry x="290" y="250" width="160" height="80" as="geometry">
            <mxRectangle x="230" y="140" width="160" height="26" as="alternateBounds" />
          </mxGeometry>
        </mxCell>
        <mxCell id="FjqlLkuucHFWqb2P5bbw-116" value="+ name: String&#xa;+ weight: float" style="text;align=left;verticalAlign=top;spacingLeft=4;spacingRight=4;overflow=hidden;rotatable=0;points=[[0,0.5],[1,0.5]];portConstraint=eastwest;" vertex="1" parent="FjqlLkuucHFWqb2P5bbw-115">
          <mxGeometry y="26" width="160" height="54" as="geometry" />
        </mxCell>
        <mxCell id="FjqlLkuucHFWqb2P5bbw-117" value="" style="endArrow=diamondThin;endFill=1;endSize=24;html=1;rounded=0;entryX=0.25;entryY=1;entryDx=0;entryDy=0;exitX=0.5;exitY=0;exitDx=0;exitDy=0;" edge="1" parent="WIyWlLk6GJQsqaUBKTNV-1" source="FjqlLkuucHFWqb2P5bbw-105" target="FjqlLkuucHFWqb2P5bbw-99">
          <mxGeometry width="160" relative="1" as="geometry">
            <mxPoint x="-290" y="108.6" as="sourcePoint" />
            <mxPoint x="-130" y="108.6" as="targetPoint" />
            <Array as="points">
              <mxPoint x="-590" y="170" />
              <mxPoint x="-310" y="170" />
            </Array>
          </mxGeometry>
        </mxCell>
        <mxCell id="FjqlLkuucHFWqb2P5bbw-118" value="It&#39;s part of" style="edgeLabel;html=1;align=center;verticalAlign=middle;resizable=0;points=[];" vertex="1" connectable="0" parent="FjqlLkuucHFWqb2P5bbw-117">
          <mxGeometry x="-0.0373" y="-2" relative="1" as="geometry">
            <mxPoint as="offset" />
          </mxGeometry>
        </mxCell>
        <mxCell id="FjqlLkuucHFWqb2P5bbw-119" value="" style="endArrow=diamondThin;endFill=1;endSize=24;html=1;rounded=0;entryX=0.75;entryY=1;entryDx=0;entryDy=0;exitX=0.5;exitY=0;exitDx=0;exitDy=0;" edge="1" parent="WIyWlLk6GJQsqaUBKTNV-1" source="FjqlLkuucHFWqb2P5bbw-102" target="FjqlLkuucHFWqb2P5bbw-99">
          <mxGeometry width="160" relative="1" as="geometry">
            <mxPoint x="-270" y="170" as="sourcePoint" />
            <mxPoint x="-110" y="170" as="targetPoint" />
            <Array as="points">
              <mxPoint x="50" y="170" />
              <mxPoint x="-230" y="170" />
            </Array>
          </mxGeometry>
        </mxCell>
        <mxCell id="FjqlLkuucHFWqb2P5bbw-120" value="" style="endArrow=diamondThin;endFill=1;endSize=24;html=1;rounded=0;entryX=0.5;entryY=1;entryDx=0;entryDy=0;exitX=0.5;exitY=0;exitDx=0;exitDy=0;" edge="1" parent="WIyWlLk6GJQsqaUBKTNV-1" source="FjqlLkuucHFWqb2P5bbw-108" target="FjqlLkuucHFWqb2P5bbw-99">
          <mxGeometry width="160" relative="1" as="geometry">
            <mxPoint x="-260" y="180" as="sourcePoint" />
            <mxPoint x="-100" y="180" as="targetPoint" />
          </mxGeometry>
        </mxCell>
        <mxCell id="FjqlLkuucHFWqb2P5bbw-121" value="" style="endArrow=none;html=1;edgeStyle=orthogonalEdgeStyle;rounded=0;" edge="1" parent="WIyWlLk6GJQsqaUBKTNV-1">
          <mxGeometry relative="1" as="geometry">
            <mxPoint x="-510" y="270" as="sourcePoint" />
            <mxPoint x="-350" y="270" as="targetPoint" />
          </mxGeometry>
        </mxCell>
        <mxCell id="FjqlLkuucHFWqb2P5bbw-122" value="1 base" style="edgeLabel;resizable=0;html=1;align=left;verticalAlign=bottom;" connectable="0" vertex="1" parent="FjqlLkuucHFWqb2P5bbw-121">
          <mxGeometry x="-1" relative="1" as="geometry" />
        </mxCell>
        <mxCell id="FjqlLkuucHFWqb2P5bbw-123" value="1 forearm" style="edgeLabel;resizable=0;html=1;align=right;verticalAlign=bottom;" connectable="0" vertex="1" parent="FjqlLkuucHFWqb2P5bbw-121">
          <mxGeometry x="1" relative="1" as="geometry" />
        </mxCell>
        <mxCell id="FjqlLkuucHFWqb2P5bbw-124" value="" style="endArrow=none;html=1;edgeStyle=orthogonalEdgeStyle;rounded=0;" edge="1" parent="WIyWlLk6GJQsqaUBKTNV-1">
          <mxGeometry relative="1" as="geometry">
            <mxPoint x="-190" y="270" as="sourcePoint" />
            <mxPoint x="-30" y="270" as="targetPoint" />
          </mxGeometry>
        </mxCell>
        <mxCell id="FjqlLkuucHFWqb2P5bbw-125" value="1 forearm" style="edgeLabel;resizable=0;html=1;align=left;verticalAlign=bottom;" connectable="0" vertex="1" parent="FjqlLkuucHFWqb2P5bbw-124">
          <mxGeometry x="-1" relative="1" as="geometry" />
        </mxCell>
        <mxCell id="FjqlLkuucHFWqb2P5bbw-126" value="1 gripper" style="edgeLabel;resizable=0;html=1;align=right;verticalAlign=bottom;" connectable="0" vertex="1" parent="FjqlLkuucHFWqb2P5bbw-124">
          <mxGeometry x="1" relative="1" as="geometry" />
        </mxCell>
        <mxCell id="FjqlLkuucHFWqb2P5bbw-127" value="" style="endArrow=none;html=1;edgeStyle=orthogonalEdgeStyle;rounded=0;entryX=0.5;entryY=1;entryDx=0;entryDy=0;exitX=0.5;exitY=0;exitDx=0;exitDy=0;" edge="1" parent="WIyWlLk6GJQsqaUBKTNV-1" source="FjqlLkuucHFWqb2P5bbw-111" target="FjqlLkuucHFWqb2P5bbw-108">
          <mxGeometry relative="1" as="geometry">
            <mxPoint x="-270" y="490" as="sourcePoint" />
            <mxPoint x="-670" y="510" as="targetPoint" />
          </mxGeometry>
        </mxCell>
        <mxCell id="FjqlLkuucHFWqb2P5bbw-128" value="1...2 servomotorList" style="edgeLabel;resizable=0;html=1;align=left;verticalAlign=bottom;" connectable="0" vertex="1" parent="FjqlLkuucHFWqb2P5bbw-127">
          <mxGeometry x="-1" relative="1" as="geometry">
            <mxPoint x="-100" as="offset" />
          </mxGeometry>
        </mxCell>
        <mxCell id="FjqlLkuucHFWqb2P5bbw-129" value="1 forearm" style="edgeLabel;resizable=0;html=1;align=right;verticalAlign=bottom;" connectable="0" vertex="1" parent="FjqlLkuucHFWqb2P5bbw-127">
          <mxGeometry x="1" relative="1" as="geometry">
            <mxPoint y="22" as="offset" />
          </mxGeometry>
        </mxCell>
        <mxCell id="FjqlLkuucHFWqb2P5bbw-130" value="Moves" style="edgeLabel;html=1;align=center;verticalAlign=middle;resizable=0;points=[];" vertex="1" connectable="0" parent="FjqlLkuucHFWqb2P5bbw-127">
          <mxGeometry x="0.0462" y="1" relative="1" as="geometry">
            <mxPoint x="21" y="-6" as="offset" />
          </mxGeometry>
        </mxCell>
        <mxCell id="FjqlLkuucHFWqb2P5bbw-131" value="" style="endArrow=none;html=1;edgeStyle=orthogonalEdgeStyle;rounded=0;entryX=0.5;entryY=1;entryDx=0;entryDy=0;exitX=1.01;exitY=0.126;exitDx=0;exitDy=0;exitPerimeter=0;" edge="1" parent="WIyWlLk6GJQsqaUBKTNV-1" source="FjqlLkuucHFWqb2P5bbw-111" target="FjqlLkuucHFWqb2P5bbw-102">
          <mxGeometry relative="1" as="geometry">
            <mxPoint x="-80" y="559" as="sourcePoint" />
            <mxPoint x="-670" y="558.37" as="targetPoint" />
            <Array as="points">
              <mxPoint x="50" y="550" />
            </Array>
          </mxGeometry>
        </mxCell>
        <mxCell id="FjqlLkuucHFWqb2P5bbw-132" value="1 servomotor" style="edgeLabel;resizable=0;html=1;align=left;verticalAlign=bottom;" connectable="0" vertex="1" parent="FjqlLkuucHFWqb2P5bbw-131">
          <mxGeometry x="-1" relative="1" as="geometry" />
        </mxCell>
        <mxCell id="FjqlLkuucHFWqb2P5bbw-133" value="1 gripper" style="edgeLabel;resizable=0;html=1;align=right;verticalAlign=bottom;" connectable="0" vertex="1" parent="FjqlLkuucHFWqb2P5bbw-131">
          <mxGeometry x="1" relative="1" as="geometry">
            <mxPoint x="50" y="22" as="offset" />
          </mxGeometry>
        </mxCell>
        <mxCell id="FjqlLkuucHFWqb2P5bbw-134" value="Moves" style="edgeLabel;html=1;align=center;verticalAlign=middle;resizable=0;points=[];" vertex="1" connectable="0" parent="FjqlLkuucHFWqb2P5bbw-131">
          <mxGeometry x="0.0877" relative="1" as="geometry">
            <mxPoint x="-67" as="offset" />
          </mxGeometry>
        </mxCell>
        <mxCell id="FjqlLkuucHFWqb2P5bbw-135" value="Camera" style="swimlane;fontStyle=0;align=center;verticalAlign=top;childLayout=stackLayout;horizontal=1;startSize=26;horizontalStack=0;resizeParent=1;resizeLast=0;collapsible=1;marginBottom=0;rounded=0;shadow=0;strokeWidth=1;" vertex="1" parent="WIyWlLk6GJQsqaUBKTNV-1">
          <mxGeometry x="480" y="-50" width="170" height="96" as="geometry">
            <mxRectangle x="230" y="140" width="160" height="26" as="alternateBounds" />
          </mxGeometry>
        </mxCell>
        <mxCell id="FjqlLkuucHFWqb2P5bbw-136" value="+ startStreaming(): void&#xa;+ stopStreaming(): void" style="text;align=left;verticalAlign=top;spacingLeft=4;spacingRight=4;overflow=hidden;rotatable=0;points=[[0,0.5],[1,0.5]];portConstraint=eastwest;" vertex="1" parent="FjqlLkuucHFWqb2P5bbw-135">
          <mxGeometry y="26" width="170" height="70" as="geometry" />
        </mxCell>
        <mxCell id="FjqlLkuucHFWqb2P5bbw-137" value="WeightSensor" style="swimlane;fontStyle=0;align=center;verticalAlign=top;childLayout=stackLayout;horizontal=1;startSize=26;horizontalStack=0;resizeParent=1;resizeLast=0;collapsible=1;marginBottom=0;rounded=0;shadow=0;strokeWidth=1;" vertex="1" parent="WIyWlLk6GJQsqaUBKTNV-1">
          <mxGeometry x="-890" y="-76" width="160" height="190" as="geometry">
            <mxRectangle x="230" y="140" width="160" height="26" as="alternateBounds" />
          </mxGeometry>
        </mxCell>
        <mxCell id="FjqlLkuucHFWqb2P5bbw-138" value="- name: string" style="text;align=left;verticalAlign=top;spacingLeft=4;spacingRight=4;overflow=hidden;rotatable=0;points=[[0,0.5],[1,0.5]];portConstraint=eastwest;" vertex="1" parent="FjqlLkuucHFWqb2P5bbw-137">
          <mxGeometry y="26" width="160" height="26" as="geometry" />
        </mxCell>
        <mxCell id="FjqlLkuucHFWqb2P5bbw-139" value="- type: string" style="text;align=left;verticalAlign=top;spacingLeft=4;spacingRight=4;overflow=hidden;rotatable=0;points=[[0,0.5],[1,0.5]];portConstraint=eastwest;" vertex="1" parent="FjqlLkuucHFWqb2P5bbw-137">
          <mxGeometry y="52" width="160" height="26" as="geometry" />
        </mxCell>
        <mxCell id="FjqlLkuucHFWqb2P5bbw-140" value="- unit: string" style="text;align=left;verticalAlign=top;spacingLeft=4;spacingRight=4;overflow=hidden;rotatable=0;points=[[0,0.5],[1,0.5]];portConstraint=eastwest;" vertex="1" parent="FjqlLkuucHFWqb2P5bbw-137">
          <mxGeometry y="78" width="160" height="26" as="geometry" />
        </mxCell>
        <mxCell id="FjqlLkuucHFWqb2P5bbw-141" value="- status: string" style="text;align=left;verticalAlign=top;spacingLeft=4;spacingRight=4;overflow=hidden;rotatable=0;points=[[0,0.5],[1,0.5]];portConstraint=eastwest;" vertex="1" parent="FjqlLkuucHFWqb2P5bbw-137">
          <mxGeometry y="104" width="160" height="26" as="geometry" />
        </mxCell>
        <mxCell id="FjqlLkuucHFWqb2P5bbw-142" value="" style="line;html=1;strokeWidth=1;align=left;verticalAlign=middle;spacingTop=-1;spacingLeft=3;spacingRight=3;rotatable=0;labelPosition=right;points=[];portConstraint=eastwest;" vertex="1" parent="FjqlLkuucHFWqb2P5bbw-137">
          <mxGeometry y="130" width="160" height="4" as="geometry" />
        </mxCell>
        <mxCell id="FjqlLkuucHFWqb2P5bbw-143" value="+ measuredValue(): float" style="text;align=left;verticalAlign=top;spacingLeft=4;spacingRight=4;overflow=hidden;rotatable=0;points=[[0,0.5],[1,0.5]];portConstraint=eastwest;" vertex="1" parent="FjqlLkuucHFWqb2P5bbw-137">
          <mxGeometry y="134" width="160" height="26" as="geometry" />
        </mxCell>
        <mxCell id="FjqlLkuucHFWqb2P5bbw-144" value="+ detectOverload(): boolean" style="text;align=left;verticalAlign=top;spacingLeft=4;spacingRight=4;overflow=hidden;rotatable=0;points=[[0,0.5],[1,0.5]];portConstraint=eastwest;" vertex="1" parent="FjqlLkuucHFWqb2P5bbw-137">
          <mxGeometry y="160" width="160" height="26" as="geometry" />
        </mxCell>
        <mxCell id="FjqlLkuucHFWqb2P5bbw-145" value="Button" style="swimlane;fontStyle=0;align=center;verticalAlign=top;childLayout=stackLayout;horizontal=1;startSize=26;horizontalStack=0;resizeParent=1;resizeLast=0;collapsible=1;marginBottom=0;rounded=0;shadow=0;strokeWidth=1;" vertex="1" parent="WIyWlLk6GJQsqaUBKTNV-1">
          <mxGeometry x="-350" y="848" width="160" height="138" as="geometry">
            <mxRectangle x="230" y="140" width="160" height="26" as="alternateBounds" />
          </mxGeometry>
        </mxCell>
        <mxCell id="FjqlLkuucHFWqb2P5bbw-146" value="" style="line;html=1;strokeWidth=1;align=left;verticalAlign=middle;spacingTop=-1;spacingLeft=3;spacingRight=3;rotatable=0;labelPosition=right;points=[];portConstraint=eastwest;" vertex="1" parent="FjqlLkuucHFWqb2P5bbw-145">
          <mxGeometry y="26" width="160" height="8" as="geometry" />
        </mxCell>
        <mxCell id="FjqlLkuucHFWqb2P5bbw-147" value="+press(): boolean" style="text;align=left;verticalAlign=top;spacingLeft=4;spacingRight=4;overflow=hidden;rotatable=0;points=[[0,0.5],[1,0.5]];portConstraint=eastwest;" vertex="1" parent="FjqlLkuucHFWqb2P5bbw-145">
          <mxGeometry y="34" width="160" height="26" as="geometry" />
        </mxCell>
        <mxCell id="FjqlLkuucHFWqb2P5bbw-148" value="Encoder" style="swimlane;fontStyle=0;align=center;verticalAlign=top;childLayout=stackLayout;horizontal=1;startSize=26;horizontalStack=0;resizeParent=1;resizeLast=0;collapsible=1;marginBottom=0;rounded=0;shadow=0;strokeWidth=1;" vertex="1" parent="WIyWlLk6GJQsqaUBKTNV-1">
          <mxGeometry x="-670" y="850" width="160" height="138" as="geometry">
            <mxRectangle x="230" y="140" width="160" height="26" as="alternateBounds" />
          </mxGeometry>
        </mxCell>
        <mxCell id="FjqlLkuucHFWqb2P5bbw-149" value="" style="line;html=1;strokeWidth=1;align=left;verticalAlign=middle;spacingTop=-1;spacingLeft=3;spacingRight=3;rotatable=0;labelPosition=right;points=[];portConstraint=eastwest;" vertex="1" parent="FjqlLkuucHFWqb2P5bbw-148">
          <mxGeometry y="26" width="160" height="8" as="geometry" />
        </mxCell>
        <mxCell id="FjqlLkuucHFWqb2P5bbw-150" value="+ moveStep(StepperMotor): void" style="text;align=left;verticalAlign=top;spacingLeft=4;spacingRight=4;overflow=hidden;rotatable=0;points=[[0,0.5],[1,0.5]];portConstraint=eastwest;" vertex="1" parent="FjqlLkuucHFWqb2P5bbw-148">
          <mxGeometry y="34" width="160" height="26" as="geometry" />
        </mxCell>
        <mxCell id="FjqlLkuucHFWqb2P5bbw-151" value="" style="endArrow=none;html=1;edgeStyle=orthogonalEdgeStyle;rounded=0;entryX=0.492;entryY=0.984;entryDx=0;entryDy=0;entryPerimeter=0;exitX=0.5;exitY=0;exitDx=0;exitDy=0;" edge="1" parent="WIyWlLk6GJQsqaUBKTNV-1" source="FjqlLkuucHFWqb2P5bbw-145" target="FjqlLkuucHFWqb2P5bbw-114">
          <mxGeometry relative="1" as="geometry">
            <mxPoint x="-1090" y="511" as="sourcePoint" />
            <mxPoint x="-670" y="510" as="targetPoint" />
          </mxGeometry>
        </mxCell>
        <mxCell id="FjqlLkuucHFWqb2P5bbw-152" value="1 servomotor" style="edgeLabel;resizable=0;html=1;align=right;verticalAlign=bottom;" connectable="0" vertex="1" parent="FjqlLkuucHFWqb2P5bbw-151">
          <mxGeometry x="1" relative="1" as="geometry">
            <mxPoint y="21" as="offset" />
          </mxGeometry>
        </mxCell>
        <mxCell id="FjqlLkuucHFWqb2P5bbw-153" value="Controlls" style="edgeLabel;html=1;align=center;verticalAlign=middle;resizable=0;points=[];" vertex="1" connectable="0" parent="FjqlLkuucHFWqb2P5bbw-151">
          <mxGeometry x="0.0279" y="1" relative="1" as="geometry">
            <mxPoint as="offset" />
          </mxGeometry>
        </mxCell>
        <mxCell id="FjqlLkuucHFWqb2P5bbw-154" value="1...2 buttonList" style="edgeLabel;resizable=0;html=1;align=left;verticalAlign=bottom;" connectable="0" vertex="1" parent="FjqlLkuucHFWqb2P5bbw-151">
          <mxGeometry x="-1" relative="1" as="geometry">
            <mxPoint x="-80" y="-1" as="offset" />
          </mxGeometry>
        </mxCell>
        <mxCell id="FjqlLkuucHFWqb2P5bbw-155" value="" style="endArrow=none;html=1;edgeStyle=orthogonalEdgeStyle;rounded=0;entryX=0.5;entryY=1;entryDx=0;entryDy=0;exitX=0.5;exitY=0;exitDx=0;exitDy=0;" edge="1" parent="WIyWlLk6GJQsqaUBKTNV-1" source="FjqlLkuucHFWqb2P5bbw-169" target="FjqlLkuucHFWqb2P5bbw-105">
          <mxGeometry relative="1" as="geometry">
            <mxPoint x="-830" y="270" as="sourcePoint" />
            <mxPoint x="-670" y="270" as="targetPoint" />
          </mxGeometry>
        </mxCell>
        <mxCell id="FjqlLkuucHFWqb2P5bbw-156" value="1 base" style="edgeLabel;resizable=0;html=1;align=right;verticalAlign=bottom;" connectable="0" vertex="1" parent="FjqlLkuucHFWqb2P5bbw-155">
          <mxGeometry x="1" relative="1" as="geometry">
            <mxPoint y="22" as="offset" />
          </mxGeometry>
        </mxCell>
        <mxCell id="FjqlLkuucHFWqb2P5bbw-157" value="Moves" style="edgeLabel;html=1;align=center;verticalAlign=middle;resizable=0;points=[];" vertex="1" connectable="0" parent="FjqlLkuucHFWqb2P5bbw-155">
          <mxGeometry x="0.0279" y="1" relative="1" as="geometry">
            <mxPoint x="18" y="-8" as="offset" />
          </mxGeometry>
        </mxCell>
        <mxCell id="FjqlLkuucHFWqb2P5bbw-158" value="" style="endArrow=open;endFill=1;endSize=12;html=1;rounded=0;" edge="1" parent="WIyWlLk6GJQsqaUBKTNV-1">
          <mxGeometry width="160" relative="1" as="geometry">
            <mxPoint x="130" y="270" as="sourcePoint" />
            <mxPoint x="290" y="270" as="targetPoint" />
          </mxGeometry>
        </mxCell>
        <mxCell id="FjqlLkuucHFWqb2P5bbw-159" value="&lt;b&gt;Structure&lt;/b&gt;" style="text;html=1;align=center;verticalAlign=middle;resizable=0;points=[];autosize=1;strokeColor=none;fillColor=none;" vertex="1" parent="WIyWlLk6GJQsqaUBKTNV-1">
          <mxGeometry x="-680" y="110" width="80" height="30" as="geometry" />
        </mxCell>
        <mxCell id="FjqlLkuucHFWqb2P5bbw-160" value="It&#39;s part of" style="edgeLabel;html=1;align=center;verticalAlign=middle;resizable=0;points=[];" vertex="1" connectable="0" parent="WIyWlLk6GJQsqaUBKTNV-1">
          <mxGeometry x="-59.99620689655211" y="170" as="geometry" />
        </mxCell>
        <mxCell id="FjqlLkuucHFWqb2P5bbw-161" value="It&#39;s part of" style="edgeLabel;html=1;align=center;verticalAlign=middle;resizable=0;points=[];" vertex="1" connectable="0" parent="WIyWlLk6GJQsqaUBKTNV-1">
          <mxGeometry x="-239.99620689655208" y="200" as="geometry" />
        </mxCell>
        <mxCell id="FjqlLkuucHFWqb2P5bbw-162" value="Esp32Cam" style="swimlane;fontStyle=0;align=center;verticalAlign=top;childLayout=stackLayout;horizontal=1;startSize=26;horizontalStack=0;resizeParent=1;resizeLast=0;collapsible=1;marginBottom=0;rounded=0;shadow=0;strokeWidth=1;" vertex="1" parent="WIyWlLk6GJQsqaUBKTNV-1">
          <mxGeometry x="150" y="-50" width="160" height="138" as="geometry">
            <mxRectangle x="230" y="140" width="160" height="26" as="alternateBounds" />
          </mxGeometry>
        </mxCell>
        <mxCell id="FjqlLkuucHFWqb2P5bbw-163" value="- brand: string&#xa;- model: string&#xa;- connectionType: string&#xa;- autoFocus: boolean" style="text;align=left;verticalAlign=top;spacingLeft=4;spacingRight=4;overflow=hidden;rotatable=0;points=[[0,0.5],[1,0.5]];portConstraint=eastwest;" vertex="1" parent="FjqlLkuucHFWqb2P5bbw-162">
          <mxGeometry y="26" width="160" height="64" as="geometry" />
        </mxCell>
        <mxCell id="FjqlLkuucHFWqb2P5bbw-164" value="" style="line;html=1;strokeWidth=1;align=left;verticalAlign=middle;spacingTop=-1;spacingLeft=3;spacingRight=3;rotatable=0;labelPosition=right;points=[];portConstraint=eastwest;" vertex="1" parent="FjqlLkuucHFWqb2P5bbw-162">
          <mxGeometry y="90" width="160" height="8" as="geometry" />
        </mxCell>
        <mxCell id="FjqlLkuucHFWqb2P5bbw-165" value="+ method():" style="text;align=left;verticalAlign=top;spacingLeft=4;spacingRight=4;overflow=hidden;rotatable=0;points=[[0,0.5],[1,0.5]];portConstraint=eastwest;" vertex="1" parent="FjqlLkuucHFWqb2P5bbw-162">
          <mxGeometry y="98" width="160" height="26" as="geometry" />
        </mxCell>
        <mxCell id="FjqlLkuucHFWqb2P5bbw-166" value="Lifts" style="edgeLabel;html=1;align=center;verticalAlign=middle;resizable=0;points=[];" vertex="1" connectable="0" parent="WIyWlLk6GJQsqaUBKTNV-1">
          <mxGeometry x="209.9988888888887" y="270" as="geometry" />
        </mxCell>
        <mxCell id="FjqlLkuucHFWqb2P5bbw-167" value="1 gripper" style="edgeLabel;resizable=0;html=1;align=left;verticalAlign=bottom;" connectable="0" vertex="1" parent="WIyWlLk6GJQsqaUBKTNV-1">
          <mxGeometry x="130" y="270" as="geometry" />
        </mxCell>
        <mxCell id="FjqlLkuucHFWqb2P5bbw-168" value="1 object" style="edgeLabel;resizable=0;html=1;align=right;verticalAlign=bottom;" connectable="0" vertex="1" parent="WIyWlLk6GJQsqaUBKTNV-1">
          <mxGeometry x="280" y="260" as="geometry" />
        </mxCell>
        <mxCell id="FjqlLkuucHFWqb2P5bbw-169" value="StepperMotor" style="swimlane;fontStyle=0;align=center;verticalAlign=top;childLayout=stackLayout;horizontal=1;startSize=26;horizontalStack=0;resizeParent=1;resizeLast=0;collapsible=1;marginBottom=0;rounded=0;shadow=0;strokeWidth=1;" vertex="1" parent="WIyWlLk6GJQsqaUBKTNV-1">
          <mxGeometry x="-670" y="530" width="160" height="130" as="geometry">
            <mxRectangle x="230" y="140" width="160" height="26" as="alternateBounds" />
          </mxGeometry>
        </mxCell>
        <mxCell id="FjqlLkuucHFWqb2P5bbw-170" value="- position: float&#xa;- state: boolean&#xa;" style="text;align=left;verticalAlign=top;spacingLeft=4;spacingRight=4;overflow=hidden;rotatable=0;points=[[0,0.5],[1,0.5]];portConstraint=eastwest;" vertex="1" parent="FjqlLkuucHFWqb2P5bbw-169">
          <mxGeometry y="26" width="160" height="44" as="geometry" />
        </mxCell>
        <mxCell id="FjqlLkuucHFWqb2P5bbw-171" value="" style="line;html=1;strokeWidth=1;align=left;verticalAlign=middle;spacingTop=-1;spacingLeft=3;spacingRight=3;rotatable=0;labelPosition=right;points=[];portConstraint=eastwest;" vertex="1" parent="FjqlLkuucHFWqb2P5bbw-169">
          <mxGeometry y="70" width="160" height="8" as="geometry" />
        </mxCell>
        <mxCell id="FjqlLkuucHFWqb2P5bbw-172" value="- moveStep(): void" style="text;align=left;verticalAlign=top;spacingLeft=4;spacingRight=4;overflow=hidden;rotatable=0;points=[[0,0.5],[1,0.5]];portConstraint=eastwest;" vertex="1" parent="FjqlLkuucHFWqb2P5bbw-169">
          <mxGeometry y="78" width="160" height="52" as="geometry" />
        </mxCell>
        <mxCell id="FjqlLkuucHFWqb2P5bbw-173" value="" style="endArrow=none;html=1;edgeStyle=orthogonalEdgeStyle;rounded=0;exitX=0.5;exitY=0;exitDx=0;exitDy=0;entryX=0.5;entryY=1;entryDx=0;entryDy=0;entryPerimeter=0;" edge="1" parent="WIyWlLk6GJQsqaUBKTNV-1" source="FjqlLkuucHFWqb2P5bbw-148" target="FjqlLkuucHFWqb2P5bbw-172">
          <mxGeometry relative="1" as="geometry">
            <mxPoint x="-1150" y="269.09" as="sourcePoint" />
            <mxPoint x="-990" y="269.09" as="targetPoint" />
          </mxGeometry>
        </mxCell>
        <mxCell id="FjqlLkuucHFWqb2P5bbw-174" value="1 stepperMotor" style="edgeLabel;resizable=0;html=1;align=right;verticalAlign=bottom;" connectable="0" vertex="1" parent="FjqlLkuucHFWqb2P5bbw-173">
          <mxGeometry x="1" relative="1" as="geometry">
            <mxPoint y="20" as="offset" />
          </mxGeometry>
        </mxCell>
        <mxCell id="FjqlLkuucHFWqb2P5bbw-175" value="Controlls" style="edgeLabel;html=1;align=center;verticalAlign=middle;resizable=0;points=[];" vertex="1" connectable="0" parent="FjqlLkuucHFWqb2P5bbw-173">
          <mxGeometry x="0.0279" y="1" relative="1" as="geometry">
            <mxPoint x="-8" as="offset" />
          </mxGeometry>
        </mxCell>
        <mxCell id="FjqlLkuucHFWqb2P5bbw-176" value="1 encoder" style="edgeLabel;resizable=0;html=1;align=right;verticalAlign=bottom;" connectable="0" vertex="1" parent="WIyWlLk6GJQsqaUBKTNV-1">
          <mxGeometry x="-589.9994420022472" y="848.000370709327" as="geometry" />
        </mxCell>
        <mxCell id="FjqlLkuucHFWqb2P5bbw-177" value="1 stepperMotor" style="edgeLabel;resizable=0;html=1;align=right;verticalAlign=bottom;" connectable="0" vertex="1" parent="WIyWlLk6GJQsqaUBKTNV-1">
          <mxGeometry x="-589.9992023369684" y="529.9998451071535" as="geometry" />
        </mxCell>
        <mxCell id="FjqlLkuucHFWqb2P5bbw-178" value="" style="endArrow=diamondThin;endFill=0;endSize=24;html=1;rounded=0;entryX=1;entryY=0.5;entryDx=0;entryDy=0;exitX=0;exitY=0.5;exitDx=0;exitDy=0;" edge="1" parent="WIyWlLk6GJQsqaUBKTNV-1">
          <mxGeometry width="160" relative="1" as="geometry">
            <mxPoint x="150" y="-11" as="sourcePoint" />
            <mxPoint x="-190" y="-11" as="targetPoint" />
          </mxGeometry>
        </mxCell>
        <mxCell id="FjqlLkuucHFWqb2P5bbw-179" value="" style="endArrow=diamondThin;endFill=0;endSize=24;html=1;rounded=0;entryX=-0.01;entryY=0.04;entryDx=0;entryDy=0;exitX=1;exitY=0.5;exitDx=0;exitDy=0;entryPerimeter=0;" edge="1" parent="WIyWlLk6GJQsqaUBKTNV-1" source="FjqlLkuucHFWqb2P5bbw-139" target="FjqlLkuucHFWqb2P5bbw-101">
          <mxGeometry width="160" relative="1" as="geometry">
            <mxPoint x="160" y="-1" as="sourcePoint" />
            <mxPoint x="-180" y="-1" as="targetPoint" />
          </mxGeometry>
        </mxCell>
        <mxCell id="FjqlLkuucHFWqb2P5bbw-180" value="" style="endArrow=diamondThin;endFill=0;endSize=24;html=1;rounded=0;entryX=1.016;entryY=0.215;entryDx=0;entryDy=0;exitX=0.006;exitY=0.21;exitDx=0;exitDy=0;exitPerimeter=0;entryPerimeter=0;" edge="1" parent="WIyWlLk6GJQsqaUBKTNV-1" source="FjqlLkuucHFWqb2P5bbw-136" target="FjqlLkuucHFWqb2P5bbw-163">
          <mxGeometry width="160" relative="1" as="geometry">
            <mxPoint x="460" y="-10" as="sourcePoint" />
            <mxPoint x="-170" y="9" as="targetPoint" />
          </mxGeometry>
        </mxCell>
        <mxCell id="FjqlLkuucHFWqb2P5bbw-181" value="1 esp32Cam" style="edgeLabel;html=1;align=center;verticalAlign=middle;resizable=0;points=[];" vertex="1" connectable="0" parent="FjqlLkuucHFWqb2P5bbw-180">
          <mxGeometry x="0.3525" y="-4" relative="1" as="geometry">
            <mxPoint x="-27" y="-16" as="offset" />
          </mxGeometry>
        </mxCell>
        <mxCell id="FjqlLkuucHFWqb2P5bbw-182" value="1 camera" style="edgeLabel;html=1;align=center;verticalAlign=middle;resizable=0;points=[];" vertex="1" connectable="0" parent="WIyWlLk6GJQsqaUBKTNV-1">
          <mxGeometry x="449.996448971411" y="-19.996699680691847" as="geometry">
            <mxPoint x="2" y="-3" as="offset" />
          </mxGeometry>
        </mxCell>
        <mxCell id="FjqlLkuucHFWqb2P5bbw-183" value="1 esp32Cam" style="edgeLabel;html=1;align=center;verticalAlign=middle;resizable=0;points=[];" vertex="1" connectable="0" parent="WIyWlLk6GJQsqaUBKTNV-1">
          <mxGeometry x="109.99644897141098" y="-19.996699680691844" as="geometry" />
        </mxCell>
        <mxCell id="FjqlLkuucHFWqb2P5bbw-184" value="1 roboticArm" style="edgeLabel;html=1;align=center;verticalAlign=middle;resizable=0;points=[];" vertex="1" connectable="0" parent="WIyWlLk6GJQsqaUBKTNV-1">
          <mxGeometry x="-150.00355102858896" y="-29.996699680691847" as="geometry" />
        </mxCell>
        <mxCell id="FjqlLkuucHFWqb2P5bbw-185" value="1 roboticArm" style="edgeLabel;html=1;align=center;verticalAlign=middle;resizable=0;points=[];" vertex="1" connectable="0" parent="WIyWlLk6GJQsqaUBKTNV-1">
          <mxGeometry x="-390.00355102858896" y="-29.996699680691847" as="geometry" />
        </mxCell>
        <mxCell id="FjqlLkuucHFWqb2P5bbw-186" value="1 weightSensor" style="edgeLabel;html=1;align=center;verticalAlign=middle;resizable=0;points=[];" vertex="1" connectable="0" parent="WIyWlLk6GJQsqaUBKTNV-1">
          <mxGeometry x="-690.003551028589" y="-19.996699680691847" as="geometry" />
        </mxCell>
        <mxCell id="FjqlLkuucHFWqb2P5bbw-187" value="1 roboticArm" style="edgeLabel;html=1;align=center;verticalAlign=middle;resizable=0;points=[];" vertex="1" connectable="0" parent="WIyWlLk6GJQsqaUBKTNV-1">
          <mxGeometry x="-350.00355102858896" y="160.00330031930815" as="geometry" />
        </mxCell>
        <mxCell id="FjqlLkuucHFWqb2P5bbw-188" value="1 roboticArm" style="edgeLabel;html=1;align=center;verticalAlign=middle;resizable=0;points=[];" vertex="1" connectable="0" parent="WIyWlLk6GJQsqaUBKTNV-1">
          <mxGeometry x="-190.00355102858896" y="160.00330031930815" as="geometry" />
        </mxCell>
        <mxCell id="FjqlLkuucHFWqb2P5bbw-189" value="1 roboticArm" style="edgeLabel;html=1;align=center;verticalAlign=middle;resizable=0;points=[];" vertex="1" connectable="0" parent="WIyWlLk6GJQsqaUBKTNV-1">
          <mxGeometry x="-310.00355102858896" y="180.00330031930815" as="geometry" />
        </mxCell>
        <mxCell id="FjqlLkuucHFWqb2P5bbw-190" value="1 forearm" style="edgeLabel;resizable=0;html=1;align=left;verticalAlign=bottom;" connectable="0" vertex="1" parent="WIyWlLk6GJQsqaUBKTNV-1">
          <mxGeometry x="-330" y="250" as="geometry" />
        </mxCell>
        <mxCell id="FjqlLkuucHFWqb2P5bbw-191" value="1 gripper" style="edgeLabel;resizable=0;html=1;align=right;verticalAlign=bottom;" connectable="0" vertex="1" parent="WIyWlLk6GJQsqaUBKTNV-1">
          <mxGeometry x="100" y="250" as="geometry" />
        </mxCell>
        <mxCell id="FjqlLkuucHFWqb2P5bbw-192" value="1 base" style="edgeLabel;resizable=0;html=1;align=left;verticalAlign=bottom;" connectable="0" vertex="1" parent="WIyWlLk6GJQsqaUBKTNV-1">
          <mxGeometry x="-630" y="250" as="geometry" />
        </mxCell>
        <mxCell id="FjqlLkuucHFWqb2P5bbw-193" value="Has an" style="edgeLabel;html=1;align=center;verticalAlign=middle;resizable=0;points=[];" vertex="1" connectable="0" parent="WIyWlLk6GJQsqaUBKTNV-1">
          <mxGeometry x="-19.99620689655211" y="-10" as="geometry" />
        </mxCell>
        <mxCell id="FjqlLkuucHFWqb2P5bbw-194" value="Has a" style="edgeLabel;html=1;align=center;verticalAlign=middle;resizable=0;points=[];" vertex="1" connectable="0" parent="WIyWlLk6GJQsqaUBKTNV-1">
          <mxGeometry x="-559.9962068965522" y="-10" as="geometry">
            <mxPoint x="1" y="-3" as="offset" />
          </mxGeometry>
        </mxCell>
        <mxCell id="FjqlLkuucHFWqb2P5bbw-195" value="Has a" style="edgeLabel;html=1;align=center;verticalAlign=middle;resizable=0;points=[];" vertex="1" connectable="0" parent="WIyWlLk6GJQsqaUBKTNV-1">
          <mxGeometry x="400.00379310344783" y="-10" as="geometry">
            <mxPoint x="1" y="-3" as="offset" />
          </mxGeometry>
        </mxCell>
      </root>
    </mxGraphModel>
  </diagram>
</mxfile>
